<?xml version="1.0" standalone="no"?>
<!DOCTYPE svg PUBLIC "-//W3C//DTD SVG 20010904//EN"
 "http://www.w3.org/TR/2001/REC-SVG-20010904/DTD/svg10.dtd">
<svg version="1.0" xmlns="http://www.w3.org/2000/svg"
 width="144.000000pt" height="144.000000pt" viewBox="0 0 144.000000 144.000000"
 preserveAspectRatio="xMidYMid meet">
<metadata>
Created by potrace 1.11, written by Peter Selinger 2001-2013
</metadata>
<g transform="translate(0.000000,144.000000) scale(0.100000,-0.100000)"
fill="#000000" stroke="none">
<path d="M554 1164 c-74 -18 -134 -74 -150 -139 -9 -34 -12 -529 -3 -560 18
-68 71 -122 144 -145 40 -13 494 -23 496 -11 4 24 4 161 0 162 -3 1 -22 3 -41
5 -19 2 -41 6 -47 9 -7 2 -13 1 -13 -3 0 -4 -56 -7 -125 -7 -69 0 -125 3 -125
7 0 4 -6 5 -12 3 -16 -6 -41 13 -56 42 -8 14 -12 89 -12 221 0 197 0 199 25
226 13 14 34 26 47 27 13 0 100 1 193 1 l170 1 0 78 c0 43 -4 81 -8 86 -13 12
-433 10 -483 -3z"/>
<path d="M755 260 c-3 -5 -1 -10 4 -10 6 0 11 5 11 10 0 6 -2 10 -4 10 -3 0
-8 -4 -11 -10z"/>
</g>
</svg>
